# xmcd
#
# Track frame offsets: 
#        300
#        16149
#        31564
#        46822
#        72379
#        95097
#        117634
#        137430
#        153745
#        176280
#        197838
#
# Disc length: 2984 seconds
#
# Revision: 0
# Processed by: cddbd v1.5.2PL0 Copyright (c) Steve Scherf et al.
# Submitted via: ExactAudioCopy v0.99pb5
#
DISCID=8f0ba40b
DTITLE=Chris Thomas King - A Young Man's Blues
DYEAR=1991
DGENRE=Acoustic Blues
TTITLE0=The Game
TTITLE1=Wanna Die With A Smile On My Face
TTITLE2=Help Us, Somebody
TTITLE3=Plaquemine Blues
TTITLE4=I'm Gonna Make It
TTITLE5=Simple
TTITLE6=Itch
TTITLE7=Sad, Sad World
TTITLE8=The Devil's Daughter
TTITLE9=Blood On The Dagger
TTITLE10=Valley Of Dreams
EXTD=
EXTT0=
EXTT1=
EXTT2=
EXTT3=
EXTT4=
EXTT5=
EXTT6=
EXTT7=
EXTT8=
EXTT9=
EXTT10=
PLAYORDER=
